<svg xmlns="http://www.w3.org/2000/svg" viewBox="0 0 24 24" aria-hidden="true">
  <path fill="#5865F2" d="M20.317 4.369A19.791 19.791 0 0 0 15.885 3a13.694 13.694 0 0 0-.714 1.447 18.27 18.27 0 0 0-6.342 0A13.679 13.679 0 0 0 8.115 3a19.736 19.736 0 0 0-4.434 1.37C.533 9.15-.319 13.812.107 18.409a19.9 19.9 0 0 0 5.993 3.03 14.4 14.4 0 0 0 1.284-2.106 12.955 12.955 0 0 1-2.026-.985c.17-.126.336-.257.497-.392a13.911 13.911 0 0 0 12.29 0c.161.135.327.266.497.392-.652.385-1.33.717-2.027.986.38.75.811 1.455 1.285 2.105a19.867 19.867 0 0 0 5.995-3.03c.5-5.33-.854-9.95-3.578-14.04ZM8.02 15.331c-1.183 0-2.157-1.085-2.157-2.419 0-1.334.95-2.419 2.157-2.419 1.216 0 2.176 1.094 2.157 2.419 0 1.334-.95 2.419-2.157 2.419Zm7.961 0c-1.183 0-2.157-1.085-2.157-2.419 0-1.334.95-2.419 2.157-2.419 1.216 0 2.176 1.094 2.157 2.419 0 1.334-.94 2.419-2.157 2.419Z"/>
</svg>
